<?xml version="1.0" encoding="UTF-8"?>
<svg id="_Слой_1" data-name="Слой_1" xmlns="http://www.w3.org/2000/svg" version="1.1" viewBox="0 0 800 438.18">
  <!-- Generator: Adobe Illustrator 29.8.2, SVG Export Plug-In . SVG Version: 2.1.1 Build 3)  -->
  <defs>
    <style>
      .st0 {
        fill: #fff;
      }
    </style>
  </defs>
  <path class="st0" d="M742.21,179.81c-154.72,10.67-288.51,91.7-428.69,139.44-5.93,2.02-23.91,9.83-28.45,4.65-2.47-7.22,6.85-17.71,12.4-21.91,35.06-26.56,162.6-67.34,177.79-110.53,2.29-6.51,2.9-13.87-3.1-18.71-34.29-27.61-132.34,45.55-158.39,68.9-26.36,23.63-50.43,56.83-74.94,82.01-.3-.2-.58-.41-.85-.64-.83-.42-1.27-1.16-1.74-1.94-1.25-2.07-2.28-4.24-3.03-6.54-.79-2.4-1.42-4.93-1.47-7.47-.02-1.27.05-2.54.11-3.81.02-.35.04-.71.08-1.06,0-.26.01-.52.05-.78.04-.29.15-.54.28-.79.01-.07.02-.13.04-.2-.03-.03-.05-.06-.04-.09.05-.1.08-.21.12-.32.05-.24.11-.49.2-.73.12-.34.27-.67.44-.99.19-.55.4-1.08.64-1.61,28.51-103,98.25-190.86,161.53-274.83l.54-3.95c-1.4-1.27-27.73,4.1-30.53,5.94-7.9,5.17-50.63,66.48-59.21,78.64-31.1,44.04-49.2,75.56-87.71,115.57-16.63,17.28-103.26,100.86-121.06,103.25-1.98.27-4.15.88-5.81-.71-6.34-8.34,24.34-61.09,30.13-70.89,29.85-50.53,67.59-96.58,98.14-146.61,32.15-52.64,56.93-112.79-37.75-76.69-49.59,18.91-106.12,62.09-126.4,112.37-6.66,16.52-18.51,54.06,5.47,60.89l-5.41-4.06c-15.02-21.84,18.01-76.86,34.46-94.33.61-1.34,1.86-2.37,2.83-3.43.44-.48.88-.97,1.32-1.46.1-.18.2-.35.32-.53,21.14-29.88,89.78-74.81,126.9-75.93,27.47-.83,4.15,28.77-3.12,40.83-38.8,64.4-91.35,118.72-123.84,188.84-6.41,13.83-32.8,70.79-9.2,78.17,15.1,3.33,30.67-11.74,42.15-20.27,43.53-32.35,80.94-72.53,120.45-109.32-17.05,34.38-35.67,73.67-26.6,113.1.09.06.15.13.16.21.12,1.47.86,2.8,1.24,4.22.38,1.4.79,2.74,1.41,4.05.9,1.5,2,2.87,3.43,3.91.01,0,.02-.02.03-.03,2.21,1.95,4.45,3.49,6.7,4.67-3.66,3.59-7.33,6.97-11.02,10.1-20.05,16.96-45.97,28.42-66.34,48.01-23.87,22.96-44.59,64.82,5.52,24.98,29.45-23.41,50.88-57.27,80.46-80.29,7.36,1.06,14.99-.96,22.99-4.56-14.8,14.31-21.35,83.57-42.69,85.72-18.37-3.89,16.57-22.97-.87-27.72-6.56-1.79-16.35,7.42-16.36,12.42,0,.79,2.62-.73,2.86,1.04.68,4.93-.62,9.63,2.72,14.33l6.95,4.04c14.95,2.41,38.53-25.87,44.6-38.19,9.55-19.37,9.33-41.49,19.57-59.59-13.65,42.77,62.33,5.57,81.31-2.49,42.09-17.87,82.66-39.87,124.9-57.59,87.74-36.81,179.42-67.66,274.53-78.89l-21.11.19ZM134.37,424.16c13.14-34.68,51.16-56.16,80.27-76.63-5.04,9.38-72.35,84.44-80.27,76.63ZM434.61,181.22c81.33-24.45,13.21,35.33-10.8,51.24-54.75,36.28-121.02,60.31-178.74,91.93,50.31-50.08,119.93-122.25,189.54-143.17ZM250.48,325.53c9.04-6.12,18.89-11.18,29.93-14.64-3.44,2.88-6.77,6.42-10.39,8.36-4.41,2.37-12.32,5.47-19.54,6.28Z"/>
</svg>